<svg xmlns="http://www.w3.org/2000/svg" xmlns:xlink="http://www.w3.org/1999/xlink" viewBox="0 0 1213.92 341.27"><defs><style>.cls-1{fill:url(#Degradado_sin_nombre_88);}.cls-2{fill:#8ea0d2;}.cls-3{fill:#b7d9dc;}</style><linearGradient id="Degradado_sin_nombre_88" y1="170.63" x2="1213.92" y2="170.63" gradientUnits="userSpaceOnUse"><stop offset="0" stop-color="#ed1257"/><stop offset="1" stop-color="#f9466b"/></linearGradient></defs><g id="Capa_2" data-name="Capa 2"><g id="Capa_1-2" data-name="Capa 1"><path class="cls-1" d="M1113.63,0H100.29A100.29,100.29,0,0,0,0,100.29H0A100.29,100.29,0,0,0,100.29,200.57H349a100.37,100.37,0,0,1,86.13,49.2c32.41,54.39,97.2,91.5,171.84,91.5s139.43-37.11,171.84-91.5a100.37,100.37,0,0,1,86.13-49.2h248.7a100.29,100.29,0,0,0,100.29-100.28h0A100.29,100.29,0,0,0,1113.63,0Z"/><path class="cls-2" d="M480.82,260.05c1.36-4.19,3.58-4.19,4.94,0L489,269.9a36.11,36.11,0,0,0,8.36,13l3.13,2.88a7.26,7.26,0,0,1,0,10.84l-3.13,2.87a36.15,36.15,0,0,0-8.36,13l-3.21,9.85c-1.36,4.19-3.58,4.19-4.94,0l-3.21-9.85a36.15,36.15,0,0,0-8.36-13l-3.13-2.87a7.26,7.26,0,0,1,0-10.84l3.13-2.88a36.11,36.11,0,0,0,8.36-13Z"/><path class="cls-3" d="M488.85,272.55a52,52,0,0,0,3.25,5.75,28.34,28.34,0,0,0,4.2,5,26.5,26.5,0,0,1,2.45,2.33,7.36,7.36,0,0,1,1.56,3.12,7.68,7.68,0,0,1-.05,3.44,11.59,11.59,0,0,1-1.31,3.09,13.81,13.81,0,0,0,.83-3.18,7.3,7.3,0,0,0-.21-3.16,7.1,7.1,0,0,0-1.54-2.69,27.37,27.37,0,0,0-2.41-2.21,22.75,22.75,0,0,1-4.17-5.31,31.16,31.16,0,0,1-1.49-3A30.22,30.22,0,0,1,488.85,272.55Z"/><path class="cls-2" d="M879.63,166.31c1.36-4.19,3.58-4.19,5,0l7.09,21.82a36.29,36.29,0,0,0,8.36,13l10.25,9.42a7.26,7.26,0,0,1,0,10.84L900,230.84a36.29,36.29,0,0,0-8.36,13l-7.09,21.82c-1.37,4.19-3.59,4.19-5,0l-7.1-21.82a36.15,36.15,0,0,0-8.36-13l-10.25-9.42a7.26,7.26,0,0,1,0-10.84l10.25-9.42a36.15,36.15,0,0,0,8.36-13Z"/><path class="cls-3" d="M899.57,227.61c-1.17,1.28-2.33,2.58-3.38,3.94s-2.11,2.74-3.06,4.18a59.34,59.34,0,0,0-8.24,18.79,67.52,67.52,0,0,0-1.65,10.23,47.79,47.79,0,0,1,.15-5.21c.16-1.74.42-3.47.75-5.18a47.32,47.32,0,0,1,3.14-10,47.84,47.84,0,0,1,5.22-9.08A45.22,45.22,0,0,1,899.57,227.61Z"/></g></g></svg>