<svg xmlns="http://www.w3.org/2000/svg" xmlns:xlink="http://www.w3.org/1999/xlink" viewBox="0 0 96 100.05"><defs><style>.cls-1{fill:none;}.cls-2{fill:#8ea0d2;}.cls-3{clip-path:url(#clip-path);}.cls-4{fill:#fed1d8;}.cls-5{fill:#fea2ad;}.cls-6{fill:#fea2ae;}.cls-7{fill:#fe9fab;}.cls-8{fill:#fea0ac;}.cls-9{fill:#fea1ac;}.cls-10{fill:#eedbdd;}</style><clipPath id="clip-path" transform="translate(0 0)"><circle class="cls-1" cx="48" cy="48" r="48"/></clipPath></defs><g id="Capa_2" data-name="Capa 2"><g id="Capa_1-2" data-name="Capa 1"><circle class="cls-2" cx="48" cy="48" r="48"/><g class="cls-3"><path class="cls-4" d="M68.12,97.84c-3.05,1.65-6.54,1.14-9.7,1.24-7.59.24-15.19.65-22.78,1-2.55.11-4.53-.49-5.8-2.8.62-2.65-.3-5.07-1.38-7.35-1.26-2.65-1.81-5.49-2.68-8.24a6.8,6.8,0,0,1-.27-2.76c.25-2.12,0-5.16,2.71-5.26s2.39,2.86,2.57,4.89a7.92,7.92,0,0,0,.86,3.34c1,1.66,2.05,2.59,3.76.76.57-.61,1-1.85,2.14-1.2.84.49.79,1.62.85,2.54a16.29,16.29,0,0,0,.36,3.35c-.19-5.18-1.13-10-5.1-13.9-1.65-1.61-2.4-4-2.93-6.21-1.52-6.45-3.95-12.59-6-18.86-1.1-3.34-1.25-6.83-2.16-10.17,1.56-3.57.44-7.51,2.09-11.29,1.91-4.37,4.58-8.22,6.64-12.45.42-.87,1.28-.88,1.94-1.29,1.65-1.05,3.52-1.84,4.44-3.75a5.28,5.28,0,0,1,5.62-3.15,4.26,4.26,0,0,1,1,.07c4,.5,8,1,11.77-.94,1.07-.56,1.73.14,2.3.93,2.59,3.55,6.54,6.16,6.67,11.39,0,1.67,2.5,3.11,3.92,4.6,2.21,2.29,5,4.06,5.77,7.59.5,2.28,0,4.31-.24,6.47a166,166,0,0,1-5,26.19A62.51,62.51,0,0,0,67,80c0,4.38-.87,8.75-.64,13.17C66.4,95,66.59,96.64,68.12,97.84Z" transform="translate(0 0)"/><path class="cls-5" d="M43.8,6.59c-1,.08-1.52,2.08-2.92.62-.55-.57-1.12.14-1.34.58-1.58,3.19-3.4,6-7.36,6.58-.64.11-.56,1.81-1.22,2.83-2.06,3.14-5.06,5.9-5.28,10-.05.9.14,1.91-1,2.34a1.79,1.79,0,0,0-.93,2.62c1,2.19.15,4-.85,5.76q-.32.49-.63,0c-.48-10,4.62-18,9.56-26,.66-1.07,1.9-.6,2.63-1a14.46,14.46,0,0,0,4.46-4.29c3.05-4,5.17-4.21,10.14-2.13,1.32.55,3.42-.41,5-1s2.78-.11,4,1a36.52,36.52,0,0,1,9.46,13.89c.84,2.06,2.85,3.71,4.52,5.35,3.4,3.35,4.33,7.11,3.43,11.87-1.23,6.56-1.57,13.27-3.07,19.81-.94,4.05-2.57,7.92-2.91,12.12-.81,10.09-3,20.11-1.41,30.31-2.27.25-2.76-1.1-2.74-3,.12-12.6.7-25.12,4.5-37.29,2.47-7.94,3.18-16.25,4.4-24.43a7.18,7.18,0,0,0-3-7.3c-2.76-1.87-4.22-5.25-7.43-6.69-.46-.21-.47-.82-.28-1.25,1.34-3.1-.67-5.14-2.46-7A36.76,36.76,0,0,1,57.1,5.63c-1.94,1.5-3.81,3.24-6.43,1.56-.53-.34-.86,0-1.17.3-2.33,2.32-3.85-.38-5.71-.91Z" transform="translate(0 0)"/><path class="cls-6" d="M22.26,38h.63c1.48,2,1,4.48,1.68,6.64,2.81,8.92,5.84,17.77,8.74,26.66a3.19,3.19,0,0,0,1,1.71c5,4,4.73,10,5.85,15.47a1.07,1.07,0,0,1-.84,1.33c-.67.1-.93-.53-1.2-1-1.14-2.17-.29-4.57-.75-6.83-.23.08-.5.1-.6.23-.87,1.15-1.12,3.16-3,3s-2.66-2-3.42-3.59c-.84-1.79-.34-3.67-.55-5.5a2,2,0,0,0-1.61-2c-1-.1-1,1-1.28,1.78-1.66,4.84.51,9.13,2.3,13.32.88,2,1.05,4.22,1.92,6.23.42,1-.05,1.83-1.3,1.92C27.52,91.61,25.12,86,24.37,79.91a8.33,8.33,0,0,1,2.81-7.52c2.35-2,2.71-4.13,2-7-1.86-7.28-5.31-14.06-6.56-21.53A28.82,28.82,0,0,1,22.26,38Z" transform="translate(0 0)"/><path class="cls-7" d="M49.3,37.24c7.12-.47,10.24,3.15,11.17,10.76.3,2.5,1,5,.8,7.56-.28,4.75-1.53,5.95-6.22,5.36a14.84,14.84,0,0,1-3.37-.76,8.52,8.52,0,0,0-6.43.18c-2.57,1-5.28.76-7.9.52a5,5,0,0,1-4.65-4.48C31.37,49.1,37.38,39.63,44.47,37.6,46.09,37.13,47.69,37.37,49.3,37.24Z" transform="translate(0 0)"/><path class="cls-8" d="M46.58,28.89c-1.72,5-4.15,6-8.87,3.34-.45,3.19-.34,6.48-2.1,9.33-1.06,1.69-2.21,3.57-4.48,3.26a5.5,5.5,0,0,1-4.42-4.4c-.6-2.39-1-5,.34-7.38,1.93.79,2.12,2.5,2.34,4.26.2,1.52.51,3.31,2.63,2.72,1.83-.51,3.43-1.67,2.72-4a36.69,36.69,0,0,1-1-4.37c-.39-2.37-1.21-2.58-3.25-1.08-1.06.77-1.74,2.26-3.44,1.83a5.72,5.72,0,0,1,.17-1c2-6.2,2.28-6.38,8.52-5.68.53-2.58,1-5.16,1.6-7.74a10.26,10.26,0,0,1,2.27-4.64C43,9.46,47.12,10,50.2,14.85c1.12-2.26,2.24-4.44,5.26-4.1a3.69,3.69,0,0,1,3.69,3.46c.1,2.35,1.12,4.61.68,7h0c-.5.47-1.2,1.11-.94,1.68,1.27,2.81-.23,5.39-.47,8.07h0c-.43.37-.27,1-.69,1.4-2.63,3.1-5,2.73-6.72-.88-1.26-2.61-.34-5.8-2.34-8.18-1.33-1.46-1.07-3.47-1.74-5.16s-1.47-2.94-3.46-2.75a3.7,3.7,0,0,0-3.61,3.16c-.61,3.15.81,6.11,1,9.2,0,1.29,1.41,1.25,2.51,1S45.53,27.89,46.58,28.89Z" transform="translate(0 0)"/><path class="cls-9" d="M70.41,36.14c-.31,1.62-.57,3-.82,4.33-.76,4-2.87,4.84-6,2.29-4.39-3.6-5.17-12.89-1.44-17.09,1.59-1.79,5.58-.41,6.6,2.59A63.67,63.67,0,0,1,70.41,36.14Z" transform="translate(0 0)"/><path class="cls-8" d="M46.58,28.89c-2.14-.48-4,2.64-6.17.6-1.74-1.65-.3-4-.89-6-.49-1.63-1.11-3.05-.72-5,.61-3,2.47-4.07,5.07-4.26,2.88-.21,3.58,2,4.14,4.23a13.87,13.87,0,0,1,.67,4.78h0c-.47.37-.3,1-.69,1.44A6.71,6.71,0,0,1,46.58,28.89Z" transform="translate(0 0)"/><path class="cls-8" d="M27.08,32.37c1.2-1.08,2.36-2.21,3.61-3.23,1.93-1.6,3.65-1.07,3.91,1.4a23.11,23.11,0,0,0,1.35,6c.64,1.68-1.8,4.37-4.12,4.76s-3.22-1.43-3.23-3.15A11.66,11.66,0,0,0,27.05,33,3.72,3.72,0,0,1,27.08,32.37Z" transform="translate(0 0)"/><path class="cls-9" d="M58.43,31c0-1.07-1-2.09,0-3.23s.77-2.26,0-3.44c-1.23-1.76-.58-2.76,1.42-3.08C59.76,24.53,60.29,27.93,58.43,31Z" transform="translate(0 0)"/><path class="cls-9" d="M59.83,21.23c-.65-2.3-2.19-4.51-.68-7A6,6,0,0,1,59.83,21.23Z" transform="translate(0 0)"/><path class="cls-9" d="M57.74,32.38a1.43,1.43,0,0,1,.69-1.4A1.46,1.46,0,0,1,57.74,32.38Z" transform="translate(0 0)"/><path class="cls-8" d="M48,24.76a1.41,1.41,0,0,1,.69-1.44A1.56,1.56,0,0,1,48,24.76Z" transform="translate(0 0)"/><path class="cls-4" d="M43.8,6.59l.16-.3-.17.29Z" transform="translate(0 0)"/><path class="cls-10" d="M31.66,74.46c-1.91-1.62-1.46-2.79-.67-4.11C32.35,71.47,31.88,72.68,31.66,74.46Z" transform="translate(0 0)"/></g></g></g></svg>