<svg xmlns="http://www.w3.org/2000/svg" viewBox="0 0 181.86 163.92"><defs><style>.cls-1{fill:#fea0ac;}.cls-2{fill:#fed1d7;}.cls-3{fill:#edbdc2;}.cls-4{fill:#eebdc3;}.cls-5{fill:#f0bac1;}.cls-6{fill:#fea9b4;}.cls-7{fill:#ebe3e4;}.cls-8{fill:#eae6e7;}.cls-9{fill:#eee4e5;}.cls-10{fill:#eae8e8;}.cls-11{fill:#eae8e9;}</style></defs><g id="Capa_2" data-name="Capa 2"><g id="Capa_1-2" data-name="Capa 1"><path class="cls-1" d="M115.55,140.46c3.23.39,5-1,6.79-2.22,3.7-2.47,7.25-5.16,10.89-7.73,2.14-1.51,4.36-2.7,7-1.06s2.85,4.23,2.23,6.76c-1.72,7-5.06,12.74-12.88,14.38-6.67,1.39-13.26,3.66-20.19,2.11-2.08-.46-3.08.71-4,1.91-2.7,3.64-6.88,4.32-10.74,5.64-2.59.88-3.94-1.49-5.69-2.58-1,0-.81.84-1.1,1.31-4,6.52-9.77,6.71-13-.17-2-4.22-4.89-6.59-8.44-9.12-4.93-3.51-9.17-7.9-11.12-14s-1.5-11.8,3.45-15.76c6.1-4.9,6.43-11.41,7.5-18.2.85-5.36-.87-8.22-5.17-11.08-4.69-3.12-7.41-8.21-10-13.19-.84-1.64-1.18-3.66-3.79-4.63-.89,6-4.2,10.88-6.34,16.28-5.6,14.14-20.73,17.34-31.66,6.77A36.58,36.58,0,0,1,2.76,87.8c-4.55-8-3.65-15,4.06-20C21.6,58.24,32,44.93,42.27,31,56.33,11.92,75.18.58,99.74,0c11.65-.27,21.38,3.82,27.94,12.79C137,25.53,150,33.38,162.2,42.47c7.58,5.66,14.41,12,18.32,21,3.14,7.22.68,13.22-6.59,16-12.63,4.85-22.26-.74-31.09-8.75-6.39-5.78-6.42-6.05-10,1.71-3.27,7.07-7.27,13.41-13.8,17.91-.88.61-2,1.6-2.08,2.49-.54,6.22-2.82,12-3.9,18.12a9.67,9.67,0,0,0,.92,7C118.47,125,120.54,132.28,115.55,140.46Z"/><path class="cls-2" d="M119.34,34.13C124.51,42,127.14,51,132,58.82c1.91,3.08,1.2,6.16-.34,8.59-7,11.06-14.78,21.16-27.75,26.35C87.77,100.21,67.28,92.65,57.81,81c-1.7-2.09-3.25-4.32-5.12-6.24C47,68.91,50.25,62.36,51.11,56c.46-3.41,1-6.8,1.59-10.5-2.88.08-3.41,1.79-4.05,3.6C46.1,56.29,45,63.85,43.21,71.23c-2.06,8.36-6.05,15.68-11.06,22.48-4.33,5.89-12,4.43-18,.17a26.36,26.36,0,0,1-7.63-9.07C3.73,79.58,4.3,76,8.89,72.18a72.21,72.21,0,0,1,7.27-5.38c11-7.16,17.63-17.87,24.8-28.47C53.09,20.38,68.91,7.2,91.66,4.74A101,101,0,0,1,103,4a19.29,19.29,0,0,1,12.09,3.73c6.24,4.87,12.25,9.88,17.17,16.33S144,35.14,150.22,40.29c7.68,6.34,16.37,11.56,22.29,19.91,2.38,3.35,4.55,6.6,1.93,10.77-2,3.18-7.63,5.1-11.91,4.17-12.77-2.79-21.07-11.2-27.3-22-2.63-4.54-4.79-9.33-7.79-13.68A12.83,12.83,0,0,0,119.34,34.13Z"/><path class="cls-2" d="M61.26,122.53c8.74-6.67,8.21-16.18,7.49-26.25,15.83,7.64,30.9,7.43,46.75-2.74-6,11.1-9.75,21.25-2.57,31.87-1,2.14,1.9,5.38-1.91,6.71h0c-.26-.37-.65-.61-.94-1-4,3.58-3.9,9.12-6.47,13.44-2.19,3.68-4.14,7.39-7.27,10.44-2.07,2-3.22,1.34-4.31-.73-1.67-3.16-1.37-6.38-.32-9.68s2.85-6.78,1.83-10.9c-4,1.36-3,6-5.74,8.41-2-2.86-1.68-7.15-6.21-9.32,3.07,7.25,2.74,14.16,2.69,21,0,1.41.24,2.89-.71,4.14a3.67,3.67,0,0,1-3.15,1.81c-1.82-.08-1.71-1.43-2-2.69-1.93-10.2-8.15-18.68-10.76-29.12-4.21,3.45-.69,6.9-1.62,9.86C60.17,135.58,58.32,129.71,61.26,122.53Z"/><path class="cls-2" d="M122.53,141.72c3.81-.71,6.1-3.79,9.07-5.81,1.31-.88,2.53-1.88,3.78-2.84,1.08-.84,2.19-1.37,3.41-.29s.36,1.95.07,3c-2.4,8.85-8.77,12.19-17.3,12.61a4.18,4.18,0,0,1-3.17.32c-1.22-.21-2.67-.48-2.91-1.95-.28-1.67,1-2.52,2.34-3.07C119.4,143.07,121.15,142.84,122.53,141.72Z"/><path class="cls-3" d="M61.26,122.53c-1.83,6.19.43,11.09,4.83,15.32,1.09,2.68,2.18,5.35,3.28,8-5.55-3.49-10-7.69-11.57-14.18C56.89,127.88,58.5,125,61.26,122.53Z"/><path class="cls-4" d="M122.53,141.72c-1.38,2.51-5,2-6.32,4.76,1.21,2.14,3.36,1.82,5.35,1.93-3.39,2-7,.46-10.55.91C111.94,142.08,117.74,142.68,122.53,141.72Z"/><path class="cls-5" d="M111,132.12c2.18-1.8-.24-4.9,1.91-6.71,3,6.83-.56,12.14-4.31,17.41Z"/><path class="cls-5" d="M110.08,131.16l.94,1Z"/><path class="cls-1" d="M89.51,82.93c-3.6,5.83-7.13,7.47-11.33,5.44-1.29-.62-2.91-1.3-2.23-3.07.6-1.57,1.91-.23,2.88-.13,3.75.4,9.57-4.6,9.06-8-.33-2.2-2.48-2-4.11-2.47-4.67-1.31-6.47-5-4.31-8.56C83,60.18,93.64,59.15,98.05,64.3c2,2.3.89,7.4-3.06,9.09-5.16,2.22-3.32,5.1-1.91,8.2,1.08,2.4,2.89,3.27,5.41,1.79,1-.56,2-1,3-1.46s1.92-.71,2.53.32,0,1.79-.66,2.56C99.3,89.68,93.33,89,89.51,82.93Z"/><path class="cls-1" d="M121.5,49.7a23.27,23.27,0,0,1-1.82,9.86c-1.15,3.15-3.11,5.47-6.86,5.64s-6.71-.85-8.79-4.39a22.34,22.34,0,0,1-2.3-18.76c1.28-4,4.08-6.45,8.7-6.93,4-.42,6.14,1.27,8.08,4.36S121.79,46,121.5,49.7Z"/><path class="cls-1" d="M66.08,41.23l1,.07c.52.55,1.41.32,1.92.89,7,5.52,9.09,16.83,4.57,24.3-2.14,3.53-7.89,6.25-11.89,5.2-4.19-1.1-6.86-3.81-7.06-8.42a7.81,7.81,0,0,1,.06-5.82c2.65.21,2.35,2.58,2.92,4.19,2.17,6.18,6.1,7.26,11.58,3.08-9.87-6.46-11.7-13.38-5.56-21a8.33,8.33,0,0,0,1.18-1.12,3.57,3.57,0,0,1,.1-1C65.18,41.07,65.53,40.71,66.08,41.23Z"/><path class="cls-6" d="M66.08,41.23l-1,1c-5.09,2.33-7.5,6.51-8.23,11.87-.17,1.24-.23,2.56-1.37,3.43-1.68,1.7-.58,3.84-.93,5.76A22.2,22.2,0,0,1,57.32,44C59.19,41.15,62.11,38.83,66.08,41.23Z"/><path class="cls-6" d="M69,42.19A2,2,0,0,1,67,41.3,1.88,1.88,0,0,1,69,42.19Z"/><path class="cls-7" d="M91.3,66.17c-1.14-.07-2.28-.2-2.16-1.75A1.72,1.72,0,0,1,91,62.68,2.44,2.44,0,0,1,93.44,65C93.47,66.18,92.22,66.11,91.3,66.17Z"/><path class="cls-8" d="M116.64,58.08c-3.2,5-7,5.43-9.81,1.19a17.67,17.67,0,0,1-1.7-17.58c1.15-2.68,3.28-3.94,7.26-4.3-3.55,4-5.72,7.26-4.41,12C109.24,53.88,111.64,56.9,116.64,58.08Z"/><path class="cls-9" d="M114,42.68a3.14,3.14,0,0,1,2.72,2.91c.18,1.34-.17,2.68-1.65,2.89s-2.55-1-2.9-2.44C111.76,44.42,112.89,43.5,114,42.68Z"/><path class="cls-10" d="M55.51,57.51a21.34,21.34,0,0,1,1.84-9.68c1.44-3.44,3.6-5.93,7.76-5.62h0a.62.62,0,0,1,.24.61c0,.23-.1.34-.17.34-5.81,7.28-5.11,14.22,1.68,18.75a6.43,6.43,0,0,0,4.85,1c-1.47,5.13-5.45,5.65-9.19,5.55-3.57-.1-5.49-2.75-6.06-6.29C56.21,60.59,55.83,59.05,55.51,57.51Z"/><path class="cls-11" d="M68.53,52.66c-1.77-.15-2.38-1.27-2.46-2.85s.24-2.87,2.2-2.78a2.46,2.46,0,0,1,2.59,2.68A2.59,2.59,0,0,1,68.53,52.66Z"/><path class="cls-6" d="M65.18,43.15c0-.32,0-.64-.07-.95a6.55,6.55,0,0,1,.41.66S65.3,43.05,65.18,43.15Z"/></g></g></svg>