<svg xmlns="http://www.w3.org/2000/svg" viewBox="0 0 167.29 118.84"><defs><style>.cls-1{fill:#fea0ac;}.cls-2{fill:#feb0ba;}.cls-3{fill:#fed2d7;}.cls-4{fill:#fed1d7;}.cls-5{fill:#edbec3;}.cls-6{fill:#efdade;}.cls-7{fill:#ece8e9;}.cls-8{fill:#fcc2ca;}</style></defs><g id="Capa_2" data-name="Capa 2"><g id="Capa_1-2" data-name="Capa 1"><path class="cls-1" d="M140.57,90.23a2.71,2.71,0,0,1,.2.84,6.18,6.18,0,0,0,.88,1.09h0c.58.49.38,1.42,1,1.86v0c.65.95.53,1.71-.58,2.21-1.05,0-1.63-.78-2.24-1.48-.32-.34-.62-.69-.93-1-.18-.15-.34-.32-.52-.48-.39-.29-.76-.6-1.15-.9-8-9.78-18.46-12.32-30.7-11.5C98,81.39,95,76,98.33,68c2.15-5.18,1.8-10.62,1.89-16,.52-3.25-.59-5.78-3-8.07C92.71,39.7,88.6,35,83,32.08c-.41-.19-.81-.42-1.2-.64-.62-.32-1.22-.67-1.82-1-2.28-1.69-5.26-2.28-7.37-4.56,1.34-2.19,3.26-1.53,5.06-1.18,8.6,1.66,15.57,6.11,21.65,12.29s13.07,12,21.94,13.76c11.31,2.29,21-2,29.34-9.29,3.67-3.23,2.81-6.4-1.63-8.62-3-1.5-6.35-2.06-9.63-2.68C126.49,27.7,113.82,24.76,102,18.92a77.22,77.22,0,0,1-12.81-8.26c-7-5.37-15.06-7.07-23.35-6.89C57.75,4,49.6,4.62,42,8.21c-11.49,5.44-16.85,11.6-15.87,23.28C26.88,40,23.35,46.72,15.87,51c-2.28,1.32-2.79,2.55-1.5,4.92,1.92,3.51,1.81,7.16-.84,10.27-1.95,2.28-1.46,4.26-.17,6.51,4.72,8.23,12,13.45,20.36,17.39,2,.95,4.83,1.2,5,4.36-.9,1.41-2.1,1.13-3.34.59C22.47,92,13.8,84.06,9.18,71.7c-.87-2.31-1.68-4-4.49-4.8-3.31-1-5.38-6.64-4.48-10.63C1,52.78,3,51.19,6.9,50.82c8.54-.84,14.93-8.88,15.23-18,.16-4.72-1-9.58,1.29-14.11C28.73,8.26,38.27,3.4,48.94,1.46c17.55-3.19,34.28-1.77,49,10.65,6.16,5.21,14.86,6.26,22.71,8.2,8.62,2.13,17.37,3.69,26,5.71,5.61,1.32,11,3.73,12.28,9.89,1.22,6-3.18,9.77-7.66,12.62-13.54,8.61-27.53,12.4-42.43,2.95-3.72-2.36-4.26-2-4.44,2.2-.27,6.14.94,12.37-1.7,18.38-1,2.33,1,3.52,3.09,3.72a53.45,53.45,0,0,0,7.16.06A44.46,44.46,0,0,1,129.81,78c6.41,2.26,12.13-1,17.41-4.3,3.52-2.23,6.89-4.41,11.19-5,3.74-.49,6.67.25,8.32,3.78s-.48,6-2.79,7.86a26.7,26.7,0,0,1-18.61,6.12,33,33,0,0,0-4.77,0c-2.39.22-1.05,1.69-.79,2.77A6.76,6.76,0,0,1,140.57,90.23Z"/><path class="cls-1" d="M35.37,95.07c1.09-.11,2.32.15,3-1.07,2.8-1.39,5.77.17,8.83-.65,2.11-.56,1.81,2.79.73,4.36a22.64,22.64,0,0,1-10.73,8.43c-1.59.61-3.48.66-4.65,2.19A14.53,14.53,0,0,0,49,111.24c3.87-1.88,7.12-4.87,11.19-6.38,3.62-1.34,6.65-2.19,10.33,1.29s9.11,3.6,14.06,3.77c9.06.32,18.21.91,26.64-3.62a7.24,7.24,0,0,1,2.76-.73c1.28-.12,2.71-.29,3.5.92,1,1.45-1.06,2.07-1.27,3.81,6.08,1.36,12.06,2.71,18.56,1.92a57.56,57.56,0,0,1,18.91.6c-.93-3.22-2.9-5.41-5-7.58-1.51-1.58-3.47-2.9-3.66-5.4.21-.79.57-1.36,1.54-1.09,6.64,2.44,10.42,7.64,12.85,13.88a4.46,4.46,0,0,1-5.73,5.92c-6.57-2.27-13.09-1.54-19.77-.89-7.36.71-14.67-.08-21.14-4-2.12-1.3-3.78-.92-5.79-.26a52.17,52.17,0,0,1-33.2,0c-1.85-.59-3.8-1.18-5-2.6-3.42-3.91-6.65-2.27-10,0-3.54,2.42-7,5.37-11.24,6.09-6.49,1.08-12.48-1.33-18.27-4-1.47-.67-2.27-2.19-3-3.62-1.77-3.5-1.13-5,2.78-5.62,5.21-.9,10.15-2.36,14.54-5.86C41.29,95.14,37.7,97,35.37,95.07Z"/><path class="cls-2" d="M146.58,98.75l-1.08,1c-2.51-.06-3.71-1.39-3.78-3.85a2.19,2.19,0,0,0,1-1.94C144.6,95.08,145,97.38,146.58,98.75Z"/><path class="cls-2" d="M142.7,94a1.81,1.81,0,0,1-1-1.86A2,2,0,0,1,142.7,94Z"/><path class="cls-2" d="M140.57,90.23l-.8-1Z"/><path class="cls-2" d="M141.65,92.16l-.88-1.09Z"/><path class="cls-3" d="M141.72,96l3.78,3.85c3.07,4.21,7.88,7.06,9.54,12.35.22.7.5,1.38.92,2.56-14.15-4.18-28.68,2.38-42.25-4.23-.09-.7.9-1.17,1.51-1.84s1.12-1,1.89-1.77c-2.86-.92-5.09.38-7.32,1.26-13.21,5.24-26.4,4.13-39.54-.18-1-.31-2.82-.23-2.31-2.74.24-1.18-2.38-.7-3.57-.45A26.36,26.36,0,0,0,53,110.52c-7,5.76-14,3.18-21,.27a2.91,2.91,0,0,1-2-3c.18-1.52,1.63-1.22,2.64-1.47,5.36-1.37,10.08-3.79,13.67-8.16,1-1.25,2.14-2.38,1.23-4.63-2.93,4.3-6,.8-9.09.44-4-2.16-8.14-4.2-12.09-6.5A36.85,36.85,0,0,1,11,70.92c-.49-1-1.91-2.39-.54-3.4C17,62.76,14.56,57.7,11,52.44c1.25-.68,2.37-1.27,3.46-1.89C21.38,46.64,25.2,40.92,25,32.75a44.84,44.84,0,0,1,.41-10C26.84,16,32.05,12,37.68,8.94,47.84,3.45,58.81,2.48,70.31,2.83c9.33.28,16.38,4.53,23.33,9.51,11.24,8,24,12,37.27,14.8,5.57,1.19,11.13,2.42,16.68,3.73,3.09.74,5.94,2.42,6.65,5.54s-1.69,5.81-4.15,7.49c-12.87,8.79-26.41,12.86-41,2.91-7.3-5-12.47-12.28-20.17-16.67A41.11,41.11,0,0,0,73.7,25.42C76.27,27,79.08,28.08,81.41,30c.3.34.65.63,1,.94h0c8,5.15,12.77,13.36,19.1,20.1-.1,6.91.56,13.82-3.22,20.3-2.17,3.72,1.55,8,6.78,8.36a102.74,102.74,0,0,0,11,0,20.24,20.24,0,0,1,16.95,7c1.78,2,3.92,3.67,5.89,5.49a10.31,10.31,0,0,0,.93.94h0a12.25,12.25,0,0,0,.92,1Z"/><path class="cls-4" d="M135.59,82c5.7-1.5,11.18-3.31,15.87-7.09a14.4,14.4,0,0,1,8-2.86c1.42-.11,3-.2,3.8,1.34s-.21,2.72-1.27,3.7a16.1,16.1,0,0,1-3.32,2.66c-5.87,3.06-12.24,4.25-18.77,4.71C138,84.62,136.39,84.26,135.59,82Z"/><path class="cls-5" d="M101.48,51c-7.87-5.27-12.18-13.93-19.1-20.1,7,2.19,10.92,8.17,16.06,12.68C100.76,45.65,102,47.92,101.48,51Z"/><path class="cls-6" d="M3.33,57.42a1.8,1.8,0,0,1-.91-1.58,1.46,1.46,0,0,1,1.8-1.57,1.84,1.84,0,0,1,1.52,2C5.71,57.15,5.21,57.71,3.33,57.42Z"/><path class="cls-5" d="M82.38,30.93l-1-.94Z"/><path class="cls-2" d="M140.71,94.08l-.92-1Z"/><path class="cls-2" d="M139.77,93.08l-.93-.94Z"/><path class="cls-1" d="M51.79,41a20.66,20.66,0,0,1-5,14.64c-3.79,4.63-12,3.22-13.43-2.89-.75-3.24-2.18-6.3-3.1-9.5C28.66,37.65,30,32.51,33.4,28c2.66-3.53,8.25-3.84,12-.94C50.09,30.58,51.79,34.49,51.79,41Z"/><path class="cls-7" d="M43.26,53.57a23.64,23.64,0,0,0,.83-9.17c-.25-5.32-3.49-8.29-8.73-7.41-3.13.53-2.88-.79-2.39-2.73,1.41-5.52,7.2-7.14,11.55-3.48C49.89,35.3,50.48,47.87,43.26,53.57Z"/><path class="cls-8" d="M36.9,41.83a1.6,1.6,0,0,1,1.18,1.81,1.13,1.13,0,0,1-1.33,1,1.57,1.57,0,0,1-1.14-1.84A1,1,0,0,1,36.9,41.83Z"/></g></g></svg>