<svg xmlns="http://www.w3.org/2000/svg" xmlns:xlink="http://www.w3.org/1999/xlink" viewBox="0 0 96 100.76"><defs><style>.cls-1{fill:none;}.cls-2{fill:#8ea0d2;}.cls-3{clip-path:url(#clip-path);}.cls-4{fill:#fed1d7;}.cls-5{fill:#fea1ad;}.cls-6{fill:#ede0e2;}.cls-7{fill:#eedbde;}.cls-8{fill:#eddee0;}.cls-9{fill:#f0d3d7;}.cls-10{fill:#f1cfd3;}</style><clipPath id="clip-path" transform="translate(0 0)"><circle class="cls-1" cx="48" cy="48" r="48"/></clipPath></defs><g id="Capa_2" data-name="Capa 2"><g id="Capa_1-2" data-name="Capa 1"><circle class="cls-2" cx="48" cy="48" r="48"/><g class="cls-3"><path class="cls-4" d="M68,98.25c-7.92,4.94-22.9.88-32.5,2-16,1.1-7.46-16.73-9.51-26.7.11-1.74-2.14-3.17-1.11-4.88.89-1.53,2.48-.09,3.76-.32,2.25-.4,3.46-2.32,2.06-4.45-4.33-6.54-2.39-14-3.29-21-.49-3.81,2.44-.8,3.83-1,1.3-9.55,7.7-1.44,10.16,3.06,2-3.83-.6-6,5.61-7.23,5-.58,3.62,5.26,6.37,7.75,1.92-2.4,6.4-11.52,9.63-5.84,1.38,2.72,2.81-1.8,4.57-.84,1.88,7.1-1.38,15.55-1.49,23.07C64.82,74.16,65,86.27,68,98.25Z" transform="translate(0 0)"/><path class="cls-5" d="M68,98.25c-8.23-18.65-1.66-39.79-.39-59.33-1.81.91-2,3.52-4,3.24s-1.51-2.49-2.07-3.83c-3.39,1.16-5.05,3.7-6.38,6.58-1,3-3.71,2.86-3.85-.4-.72-1.92-.89-6.87-3.93-6-2,.61-4.89.77-4.29,4.32a6.67,6.67,0,0,1-.33,4.09c-1.82.34-2.44-1.1-2.8-2.28-.83-2.7-3.23-4-4.82-5.95-.67-.84-1.26-.49-1.94-.34-2.19.73,1.33,4.43-.65,5.54-2.16.88-2.31-2.24-4.55-2.32,1.49,6.8-.76,14.4,2.92,20.47,4.23,4.14-.67,10-5.61,6.56,3,7.35,1.84,14.82,1.38,22.16-.13,2.12,1.28,4.43-.4,6.44-2.51,1.24-2.28-3.33-2-4.77a102.41,102.41,0,0,0,.52-18.92C21.39,71.2,21.06,47,27.81,54.23,25.74,47,27.49,42,23.8,35.61c-6.58-12.3,1.77-28.07,14.74-31,12.12-3,30.31-2.18,34.59,12C76,27,74.24,29.6,69.28,38.46c.55,18.73-4.9,37.75-.06,56.25C69.48,96,70.4,97.75,68,98.25Z" transform="translate(0 0)"/><path class="cls-4" d="M24.82,97.12l1.49.07C25.78,97.93,25.28,98,24.82,97.12Z" transform="translate(0 0)"/><path class="cls-4" d="M61.53,29c-1.21,2.58.92,6-1.47,7.6a15.29,15.29,0,0,1-9.35.89C46.26,34.6,52.47,26.33,47,23.81,46.19,26.7,49.16,39,44.13,36.4c-10.4.25-11.9.45-11.27-10.78-2.28,4.39-2.72,5.21-2.05,7.61,1.6,3.9-5.06,4.45-6,1.38-8.24-23.7,22.94-37.95,40.9-24.37C73.13,14.63,75,35.4,63.83,35.51,60.83,34.13,64.28,31,61.53,29Z" transform="translate(0 0)"/><path class="cls-6" d="M52.06,39.13l3.54,1.24c-.11,1.85-1.25,3-2.36,4.34A8.87,8.87,0,0,1,52.06,39.13Z" transform="translate(0 0)"/><path class="cls-7" d="M38.85,39.22c4.34-.08,2,2.92,2.76,4.34C40.05,42.59,39.67,41,38.85,39.22Z" transform="translate(0 0)"/><path class="cls-8" d="M25.47,55.37c.83,1,1.93,1.94,1.38,3.39C24.66,59.7,25,56.56,25.47,55.37Z" transform="translate(0 0)"/><path class="cls-9" d="M30.47,40.12c-.4,1.12-1.54.33-1.66-.52C28.85,38.62,30.49,39.17,30.47,40.12Z" transform="translate(0 0)"/><path class="cls-10" d="M65.36,37.94c-.14.22-.27.6-.53.77C63.27,39.21,64.79,36,65.36,37.94Z" transform="translate(0 0)"/></g></g></g></svg>