<svg xmlns="http://www.w3.org/2000/svg" xmlns:xlink="http://www.w3.org/1999/xlink" viewBox="0 0 92.83 118.47"><defs><style>.cls-1{fill:url(#Degradado_sin_nombre_88);}</style><linearGradient id="Degradado_sin_nombre_88" y1="59.23" x2="92.83" y2="59.23" gradientUnits="userSpaceOnUse"><stop offset="0" stop-color="#ed1257"/><stop offset="1" stop-color="#f9466b"/></linearGradient></defs><g id="Capa_2" data-name="Capa 2"><g id="Capa_1-2" data-name="Capa 1"><path class="cls-1" d="M56.77,22.12c-3.58-3.51-6.89-6.57-10-9.83a7.18,7.18,0,0,1,3-11.94c3.28-1,6,.19,8.31,2.59,4.88,5,9.84,9.88,14.78,14.8,2.17,2.17,4.36,4.34,6.57,6.47A7.45,7.45,0,0,1,79.49,35Q68.57,45.92,57.61,56.75c-2.87,2.83-6.78,3.35-9.7,1.36a7.29,7.29,0,0,1-1-11.25c2.57-2.66,5.22-5.24,7.83-7.86.5-.51,1-1.06,1.6-1.78-10-1-19.22.27-27.34,6.21-7.21,5.27-12.17,12-13.47,21C12.94,82,22.89,100.78,43.82,103.36c9,1.11,17.17-.49,24.47-5.9A35.27,35.27,0,0,0,78.87,84.07a7.25,7.25,0,0,1,8.54-4,7,7,0,0,1,4.76,9.68,57.17,57.17,0,0,1-6.81,11.38c-8.94,11.23-20.82,17.11-35.14,17.36-20.32.35-35.72-8.35-44.86-26.65-7.09-14.17-7.24-28.9.11-43,7.88-15.17,20.83-23.73,37.77-26C47.48,22.22,51.81,22.34,56.77,22.12Z"/></g></g></svg>