<svg xmlns="http://www.w3.org/2000/svg" viewBox="0 0 44.92 244.64"><defs><style>.cls-1,.cls-3{fill:#8ea0d2;}.cls-2{fill:#b7d9dc;}.cls-3{stroke:#8ea0d2;stroke-miterlimit:10;}</style></defs><g id="Capa_2" data-name="Capa 2"><g id="Capa_1-2" data-name="Capa 1"><path class="cls-1" d="M20,169.53c1.36-4.19,3.58-4.19,4.94,0l4.22,13a36.15,36.15,0,0,0,8.36,13l5,4.58a7.25,7.25,0,0,1,0,10.83l-5,4.58a36.15,36.15,0,0,0-8.36,13l-4.22,13c-1.36,4.19-3.58,4.19-4.94,0l-4.22-13a36.15,36.15,0,0,0-8.36-13l-5-4.58a7.25,7.25,0,0,1,0-10.83l5-4.58a36.15,36.15,0,0,0,8.36-13Z"/><path class="cls-2" d="M35.75,214.35c-.87,1-1.74,2-2.53,3a37.82,37.82,0,0,0-2.29,3.19,46.69,46.69,0,0,0-6.26,14.26,56.07,56.07,0,0,0-1.34,7.77,33,33,0,0,1,.05-4c.11-1.32.3-2.64.54-3.95a35.32,35.32,0,0,1,2.37-7.63,35.77,35.77,0,0,1,4-6.91A32.53,32.53,0,0,1,35.75,214.35Z"/><rect class="cls-3" x="21.33" y="0.5" width="2.26" height="185.02"/></g></g></svg>