<svg xmlns="http://www.w3.org/2000/svg" viewBox="0 0 44.92 78.25"><defs><style>.cls-1{fill:#8ea0d2;}.cls-2{fill:#b7d9dc;}</style></defs><g id="Capa_2" data-name="Capa 2"><g id="Capa_1-2" data-name="Capa 1"><path class="cls-1" d="M20,3.14C21.35-1,23.57-1,24.93,3.14l4.22,13a36.2,36.2,0,0,0,8.36,13l5,4.58a7.25,7.25,0,0,1,0,10.83l-5,4.58a36.15,36.15,0,0,0-8.36,13l-4.22,13c-1.36,4.18-3.58,4.18-4.94,0l-4.22-13a36.15,36.15,0,0,0-8.36-13l-5-4.58a7.25,7.25,0,0,1,0-10.83l5-4.58a36.2,36.2,0,0,0,8.36-13Z"/><path class="cls-2" d="M35.75,48c-.87,1-1.74,2-2.53,3a37.82,37.82,0,0,0-2.29,3.19,46.6,46.6,0,0,0-6.26,14.27,55.67,55.67,0,0,0-1.34,7.76,33.06,33.06,0,0,1,.05-4c.11-1.32.3-2.64.54-3.95a35.32,35.32,0,0,1,2.37-7.63,35.77,35.77,0,0,1,4-6.91A32.53,32.53,0,0,1,35.75,48Z"/></g></g></svg>