<svg xmlns="http://www.w3.org/2000/svg" viewBox="0 0 28.42 50.07"><defs><style>.cls-1{fill:#8ea0d2;}.cls-2{fill:#b7d9dc;}</style></defs><g id="Capa_2" data-name="Capa 2"><g id="Capa_1-2" data-name="Capa 1"><path class="cls-1" d="M11.74,3.14C13.1-1,15.32-1,16.68,3.14L17.94,7a35.54,35.54,0,0,0,8.14,12.82,7,7,0,0,1,0,10.43,35.54,35.54,0,0,0-8.14,12.82l-1.26,3.86c-1.36,4.19-3.58,4.19-4.94,0l-1.26-3.86A35.54,35.54,0,0,0,2.34,30.25a7,7,0,0,1,0-10.43A35.54,35.54,0,0,0,10.48,7Z" transform="translate(0 0)"/><path class="cls-2" d="M18.44,10.83a29.2,29.2,0,0,0,5.75,8.08,20.62,20.62,0,0,1,1.87,1.79,5.69,5.69,0,0,1,1.2,2.42,6.66,6.66,0,0,1-1.14,5,7.69,7.69,0,0,0,.38-4.8,5.44,5.44,0,0,0-1.16-2,23.51,23.51,0,0,0-1.83-1.67A18.2,18.2,0,0,1,18.44,10.83Z" transform="translate(0 0)"/></g></g></svg>